<svg width="369" height="369" viewBox="0 0 369 369" fill="none" xmlns="http://www.w3.org/2000/svg">
<g clip-path="url(#clip0_58_42)">
<path d="M362.246 28.1067L340.892 6.75232C338.75 4.61021 336.207 2.91096 333.409 1.75163C330.61 0.592309 327.611 -0.00439452 324.582 -0.00439453C321.553 -0.00439452 318.554 0.592309 315.755 1.75163C312.957 2.91096 310.414 4.61021 308.273 6.75232L274.919 40.1425C272.122 42.9307 270.017 46.3342 268.771 50.081L260.007 76.3936L205.046 131.354C196.283 125.041 186.669 120.011 176.146 117.56C152.039 111.953 127.859 116.926 111.369 133.416C104.642 140.17 99.6393 148.444 96.7824 157.538C92.4582 170.914 80.0549 181.097 66.4045 182.373C49.3238 184.009 33.4467 190.625 21.2813 202.87C-11.6116 235.669 -5.69464 294.767 34.29 334.73C74.2749 374.693 133.329 380.53 166.165 347.753C178.416 335.587 185.018 319.717 186.669 302.557C187.937 288.972 198.12 276.518 211.482 272.187C220.578 269.325 228.853 264.32 235.611 257.593C252.094 241.103 257.045 216.974 251.467 192.91C249.024 182.359 243.993 172.73 237.658 163.937L292.605 108.991L318.896 100.227C322.642 98.9812 326.046 96.876 328.834 94.0797L362.225 60.6969C366.545 56.3757 368.973 50.5167 368.978 44.4063C368.981 38.2959 366.56 32.4336 362.246 28.1067ZM149.905 253.687C143.063 253.687 136.375 251.658 130.686 247.857C124.997 244.056 120.563 238.653 117.944 232.331C115.326 226.01 114.641 219.055 115.976 212.344C117.311 205.634 120.606 199.47 125.443 194.631C130.281 189.793 136.446 186.499 143.156 185.164C149.867 183.83 156.823 184.514 163.143 187.133C169.465 189.751 174.868 194.185 178.669 199.874C182.47 205.562 184.499 212.251 184.499 219.093C184.499 228.268 180.855 237.067 174.367 243.554C167.879 250.042 159.08 253.687 149.905 253.687Z" fill="#DD78DE"/>
<path d="M340.89 6.75417L340.538 7.10586C338.443 5.01017 335.955 3.34776 333.217 2.21356C330.48 1.07937 327.546 0.495605 324.582 0.495605C321.619 0.495605 318.684 1.07937 315.946 2.21357C313.209 3.34776 310.721 5.01016 308.626 7.1058L275.272 40.4958L275.272 40.4966C272.531 43.2297 270.467 46.566 269.245 50.2388L268.781 50.0844L269.245 50.239L260.482 76.5516L260.444 76.6637L260.361 76.7472L205.4 131.708L205.099 132.009L204.754 131.76C196.028 125.474 186.473 120.479 176.033 118.047C152.056 112.471 128.066 117.427 111.724 133.769C105.053 140.466 100.092 148.67 97.2594 157.687L97.2582 157.691C92.8751 171.25 80.3092 181.575 66.4522 182.871C49.4703 184.497 33.7077 191.072 21.636 203.222L21.6343 203.224C-10.9998 235.765 -5.21513 294.539 34.6434 334.376C74.5017 374.212 133.233 379.92 165.811 347.399L165.812 347.398C177.969 335.327 184.529 319.572 186.171 302.511C187.458 288.719 197.784 276.102 211.328 271.711L211.332 271.71C220.351 268.872 228.557 263.909 235.258 257.239C251.593 240.897 256.528 216.956 250.98 193.023L250.98 193.023C248.556 182.553 243.561 172.985 237.253 164.23L237.004 163.885L237.305 163.584L292.251 108.637L292.335 108.554L292.447 108.517L318.738 99.753L318.738 99.7528C322.41 98.5314 325.747 96.4678 328.48 93.7266L328.481 93.7261L361.871 60.3433C366.097 56.1159 368.473 50.3839 368.478 44.406C368.481 38.4283 366.113 32.6933 361.893 28.4603L340.89 6.75417ZM340.89 6.75417L340.538 7.10587L361.892 28.4598L340.89 6.75417ZM125.09 194.278L125.443 194.631L125.09 194.278C120.183 199.186 116.84 205.439 115.486 212.247C114.132 219.054 114.826 226.11 117.482 232.523C120.139 238.935 124.637 244.417 130.408 248.273C136.179 252.129 142.964 254.187 149.905 254.187C159.213 254.187 168.139 250.489 174.72 243.908C181.302 237.327 184.999 228.401 184.999 219.093C184.999 212.152 182.94 205.367 179.084 199.596C175.229 193.825 169.747 189.327 163.335 186.671C156.923 184.014 149.866 183.32 143.059 184.674C136.251 186.028 129.998 189.37 125.09 194.278Z" stroke="black" stroke-opacity="0.1"/>
</g>
<defs>
<clipPath id="clip0_58_42">
<rect width="369" height="369" fill="white"/>
</clipPath>
</defs>
</svg>
